HIERARCHY
ROOT Hips
{
	OFFSET 0.000000 0.000000 0.000000 
	CHANNELS 6 Xposition Yposition Zposition Zrotation Xrotation Yrotation
	JOINT Spine
	{
		OFFSET -0.000000 8.061080 0.000000 
		CHANNELS 3 Zrotation Xrotation Yrotation
		JOINT Spine1
		{
			OFFSET -0.000000 20.532700 0.000000 
			CHANNELS 3 Zrotation Xrotation Yrotation
			JOINT Neck
			{
				OFFSET -0.000000 22.498800 0.000000 
				CHANNELS 3 Zrotation Xrotation Yrotation
				JOINT Head
				{
					OFFSET -0.000000 15.237400 1.966120 
					CHANNELS 3 Zrotation Xrotation Yrotation
					End Site
					{
						OFFSET -0.000000 19.661222 0.000000 
					}
				}
			}
			JOINT LeftShoulder
			{
				OFFSET 3.894670 16.042299 -0.398189 
				CHANNELS 3 Zrotation Xrotation Yrotation
				JOINT LeftArm
				{
					OFFSET 19.709600 0.000000 0.000000 
					CHANNELS 3 Zrotation Xrotation Yrotation
					JOINT LeftForeArm
					{
						OFFSET 25.566900 0.000000 0.000000 
						CHANNELS 3 Zrotation Xrotation Yrotation
						JOINT LeftHand
						{
							OFFSET 25.401899 0.000000 0.000000 
							CHANNELS 3 Zrotation Xrotation Yrotation
							End Site
							{
								OFFSET 14.745918 0.000000 0.000000 
							}
						}
					}
				}
			}
			JOINT RightShoulder
			{
				OFFSET -3.930780 16.042299 -0.398189 
				CHANNELS 3 Zrotation Xrotation Yrotation
				JOINT RightArm
				{
					OFFSET -19.709600 0.000000 0.000000 
					CHANNELS 3 Zrotation Xrotation Yrotation
					JOINT RightForeArm
					{
						OFFSET -25.566900 0.000000 0.000000 
						CHANNELS 3 Zrotation Xrotation Yrotation
						JOINT RightHand
						{
							OFFSET -25.401899 0.000000 0.000000 
							CHANNELS 3 Zrotation Xrotation Yrotation
							End Site
							{
								OFFSET -14.745918 0.000000 0.000000 
							}
						}
					}
				}
			}
		}
	}
	JOINT LeftUpLeg
	{
		OFFSET 9.830590 0.000000 0.000000 
		CHANNELS 3 Zrotation Xrotation Yrotation
		JOINT LeftLeg
		{
			OFFSET -0.000000 -46.474800 0.000000 
			CHANNELS 3 Zrotation Xrotation Yrotation
			JOINT LeftFoot
			{
				OFFSET -0.000000 -30.290499 0.000000 
				CHANNELS 3 Zrotation Xrotation Yrotation
				JOINT LeftToeBase
				{
					OFFSET -0.000000 -6.389880 14.745900 
					CHANNELS 3 Zrotation Xrotation Yrotation
					End Site
					{
						OFFSET -0.000000 0.000000 3.932244 
					}
				}
			}
		}
	}
	JOINT RightUpLeg
	{
		OFFSET -9.830590 0.000000 0.000000 
		CHANNELS 3 Zrotation Xrotation Yrotation
		JOINT RightLeg
		{
			OFFSET -0.000000 -46.474800 0.000000 
			CHANNELS 3 Zrotation Xrotation Yrotation
			JOINT RightFoot
			{
				OFFSET -0.000000 -30.290499 0.000000 
				CHANNELS 3 Zrotation Xrotation Yrotation
				JOINT RightToeBase
				{
					OFFSET -0.000000 -6.389880 14.745900 
					CHANNELS 3 Zrotation Xrotation Yrotation
					End Site
					{
						OFFSET -0.000000 0.000000 3.932244 
					}
				}
			}
		}
	}
}
MOTION
Frames: 18
Frame Time: 0.010000
-4.914722 83.336876 36.541298 5.713569 5.503757 -35.824867 -2.430881 -9.166622 0.168999 0.338242 4.243557 0.111763 -4.721703 6.396126 -1.603784 11.285372 9.965997 -4.971528 6.826156 10.078096 -3.396964 -69.472359 27.234440 -22.641048 -8.536495 -5.792208 -1.527307 3.664024 -5.826088 2.496769 -10.676968 8.899355 -8.077545 49.764088 53.304794 45.311802 7.314032 -11.493650 7.374777 11.681320 -11.130592 8.219029 1.193653 -5.604390 -9.965694 2.505587 0.772413 1.031464 0.323366 -3.864151 -7.604660 0.000000 0.000000 0.000000 -15.416393 -13.345582 9.329478 7.892152 17.634058 -28.492439 0.000000 0.000000 0.000000 0.000000 0.000000 0.000000 
-4.935152 83.339897 36.931030 5.719288 5.448153 -36.595005 -2.474256 -9.078235 -0.024230 0.430364 4.214801 0.044278 -4.545363 6.420211 -1.469075 11.071776 10.032418 -4.760172 6.799936 9.689052 -3.680273 -68.945168 27.291067 -22.818289 -8.555206 -5.887266 -1.689423 3.763394 -5.930209 2.530487 -10.640887 8.984387 -8.140355 49.117100 53.212360 45.986168 7.825893 -11.503588 7.166139 10.504254 -11.219177 8.478758 1.081221 -5.212821 -9.544211 2.600699 0.564389 1.080168 0.323366 -3.864151 -7.604660 0.000000 0.000000 0.000000 -15.382062 -14.018273 8.846573 7.636717 18.061783 -28.066614 0.000000 0.000000 0.000000 0.000000 0.000000 0.000000 
-4.966503 83.340446 37.316097 5.723964 5.395477 -37.354298 -2.511901 -8.991940 -0.210794 0.526186 4.192685 -0.029310 -4.439637 6.323846 -1.267241 11.002148 10.205110 -4.529160 6.764026 9.294091 -3.947101 -68.388977 27.360329 -23.004572 -8.573177 -5.999228 -1.853807 3.853943 -6.052206 2.545062 -10.604186 9.066447 -8.221854 48.469418 53.121510 46.663437 8.334416 -11.509289 6.949226 9.323801 -11.305389 8.749934 0.968105 -4.827608 -9.117561 2.694271 0.359722 1.128352 0.323366 -3.864151 -7.604660 0.000000 0.000000 0.000000 -15.333993 -14.680064 8.335724 7.367831 18.457281 -27.605682 0.000000 0.000000 0.000000 0.000000 0.000000 0.000000 
-5.009022 83.338478 37.696747 5.727929 5.345376 -38.101490 -2.545280 -8.917623 -0.407233 0.621026 4.171256 -0.090535 -4.231254 6.296000 -1.095131 10.752150 10.320300 -4.267173 6.729434 8.911289 -4.224446 -67.817650 27.418489 -23.191418 -8.588462 -6.125500 -2.019769 3.937347 -6.189353 2.542473 -10.563215 9.167249 -8.295971 47.839558 53.011570 47.320187 8.838311 -11.510721 6.726350 8.142217 -11.389363 9.032274 0.853802 -4.448200 -8.689641 2.787731 0.157593 1.176642 0.323366 -3.864151 -7.604660 0.000000 0.000000 0.000000 -15.272019 -15.337570 7.705825 7.055663 18.850447 -27.025700 0.000000 0.000000 0.000000 0.000000 0.000000 0.000000 
-5.062967 83.333923 38.073227 5.731435 5.297434 -38.835342 -2.573984 -8.850604 -0.596447 0.716395 4.152474 -0.156302 -4.111075 6.328574 -0.922499 10.639389 10.367401 -4.047063 6.692524 8.533417 -4.500242 -67.229362 27.474607 -23.381718 -8.601247 -6.264423 -2.186389 4.014531 -6.339869 2.524289 -10.518850 9.277252 -8.373920 47.225143 52.891193 47.959347 9.336910 -11.506513 6.498080 6.961245 -11.469974 9.325253 0.738378 -4.073966 -8.262563 2.880648 -0.043103 1.224899 0.323366 -3.864151 -7.604660 0.000000 0.000000 0.000000 -15.200681 -15.973519 7.118353 6.757715 19.186062 -26.476637 0.000000 0.000000 0.000000 0.000000 0.000000 0.000000 
-5.128605 83.326721 38.445747 5.734700 5.251243 -39.554623 -2.598455 -8.783798 -0.782711 0.810247 4.142835 -0.221672 -3.976118 6.385529 -0.764679 10.495807 10.302335 -3.823414 6.655086 8.146179 -4.754457 -66.626900 27.542097 -23.581282 -8.610475 -6.412588 -2.351998 4.087093 -6.500129 2.492441 -10.464355 9.377393 -8.476241 46.606422 52.778225 48.594513 9.830272 -11.497779 6.267025 5.783303 -11.548629 9.628958 0.621455 -3.704542 -7.837717 2.973453 -0.242646 1.273313 0.323366 -3.864151 -7.604660 0.000000 0.000000 0.000000 -15.119294 -16.597702 6.451421 6.433369 19.504953 -25.846184 0.000000 0.000000 0.000000 0.000000 0.000000 0.000000 
-5.206211 83.316803 38.814495 5.737859 5.206363 -40.258095 -2.616728 -8.730762 -0.965943 0.903458 4.131186 -0.286006 -3.835739 6.389267 -0.574423 10.341125 10.355604 -3.571361 6.612789 7.776066 -5.024961 -66.010605 27.593483 -23.776089 -8.617955 -6.572135 -2.519400 4.153915 -6.672484 2.448371 -10.415030 9.502797 -8.564058 46.037971 52.637272 49.185081 10.315362 -11.478316 6.029477 4.607850 -11.619123 9.941212 0.502892 -3.339461 -7.416633 3.066231 -0.441442 1.321936 0.323366 -3.864151 -7.604660 0.000000 0.000000 0.000000 -15.031130 -17.197916 5.817071 6.124758 19.771286 -25.241037 0.000000 0.000000 0.000000 0.000000 0.000000 0.000000 
-5.296068 83.304123 39.179626 5.741032 5.162373 -40.944557 -2.630122 -8.677945 -1.145925 0.994230 4.129037 -0.349451 -3.690870 6.269380 -0.386608 10.194001 10.554687 -3.331131 6.568827 7.396579 -5.273826 -65.384125 27.655464 -23.978573 -8.621130 -6.738603 -2.685090 4.216618 -6.852048 2.393801 -10.358269 9.617903 -8.675735 45.476547 52.502766 49.762535 10.793369 -11.451683 5.789742 3.437813 -11.685380 10.262766 0.382825 -2.978151 -7.001092 3.158646 -0.640311 1.370660 0.323366 -3.864151 -7.604660 0.000000 0.000000 0.000000 -14.935562 -17.786074 5.072329 5.781899 20.031078 -24.527405 0.000000 0.000000 0.000000 0.000000 0.000000 0.000000 
-5.398462 83.288643 39.541275 5.744298 5.118943 -41.612846 -2.639240 -8.643577 -1.322019 1.080715 4.121620 -0.411342 -3.229289 6.275220 -0.280943 9.465391 10.651073 -2.982323 6.528868 7.043923 -5.553185 -64.758865 27.687237 -24.169025 -8.619704 -6.912596 -2.851557 4.274419 -7.039567 2.330637 -10.301346 9.768489 -8.759354 44.975105 52.332355 50.279125 11.261763 -11.414583 5.546474 2.272968 -11.744227 10.592017 0.261173 -2.620313 -6.592355 3.250955 -0.839428 1.419601 0.323366 -3.864151 -7.604660 0.000000 0.000000 0.000000 -14.836686 -18.341898 4.421726 5.482172 20.222467 -23.902115 0.000000 0.000000 0.000000 0.000000 0.000000 0.000000 
-5.513697 83.270332 39.899532 5.747640 5.075710 -42.261845 -2.642999 -8.613112 -1.495033 1.165589 4.116270 -0.472249 -3.144046 6.282472 -0.123866 9.351239 10.724153 -2.784872 6.483671 6.694206 -5.825273 -64.127045 27.718519 -24.359339 -8.614084 -7.092580 -3.017546 4.327350 -7.233361 2.260036 -10.245496 9.923672 -8.850415 44.509296 52.155334 50.760929 11.720267 -11.366542 5.299793 1.114731 -11.795273 10.928400 0.138096 -2.265505 -6.191812 3.343111 -1.039190 1.468759 0.323366 -3.864151 -7.604660 0.000000 0.000000 0.000000 -14.734235 -18.873718 3.763120 5.190063 20.379171 -23.270370 0.000000 0.000000 0.000000 0.000000 0.000000 0.000000 
-5.642059 83.249168 40.254459 5.751113 5.032431 -42.890469 -2.644013 -8.566945 -1.664900 1.245929 4.131228 -0.532216 -3.416344 6.357698 0.125884 9.857162 10.573428 -2.680286 6.443244 6.307149 -6.034995 -63.498741 27.786972 -24.570427 -8.598410 -7.271728 -3.177030 4.377614 -7.425875 2.183495 -10.167333 10.029294 -9.005907 44.004208 52.021984 51.260975 12.172449 -11.314353 5.057854 -0.033530 -11.846192 11.272746 0.013905 -1.913377 -5.800808 3.434833 -1.240100 1.518035 0.323366 -3.864151 -7.604660 0.000000 0.000000 0.000000 -14.628306 -19.392555 2.967665 4.858662 20.540340 -22.509232 0.000000 0.000000 0.000000 0.000000 0.000000 0.000000 
-5.783848 83.225182 40.606083 5.754661 4.988900 -43.497688 -2.637829 -8.547658 -1.830966 1.323873 4.131474 -0.590814 -3.356872 6.419255 0.264325 9.760779 10.553732 -2.504748 6.394798 5.966658 -6.299986 -62.869514 27.809317 -24.756075 -8.580665 -7.459414 -3.340555 4.420515 -7.627470 2.102137 -10.109500 10.195743 -9.106031 43.615112 51.829704 51.663853 12.609356 -11.244264 4.807000 -1.175839 -11.882051 11.621099 -0.111105 -1.563699 -5.420440 3.526075 -1.442275 1.567412 0.323366 -3.864151 -7.604660 0.000000 0.000000 0.000000 -14.522833 -19.868521 2.351716 4.608964 20.616926 -21.927629 0.000000 0.000000 0.000000 0.000000 0.000000 0.000000 
-5.939356 83.198380 40.954395 5.758288 4.945006 -44.082596 -2.628686 -8.531752 -1.993496 1.395584 4.138416 -0.648126 -2.974475 6.368454 0.365803 9.120683 10.740593 -2.199894 6.353110 5.625223 -6.554571 -62.253742 27.830271 -24.941298 -8.553128 -7.647499 -3.500279 4.458828 -7.829106 2.017241 -10.040695 10.358323 -9.218160 43.246513 51.639240 52.034832 13.036246 -11.165759 4.558377 -2.308346 -11.913491 11.974494 -0.236482 -1.216262 -5.051826 3.616664 -1.646088 1.616837 0.323366 -3.864151 -7.604660 0.000000 0.000000 0.000000 -14.416165 -20.328583 1.615919 4.328990 20.696983 -21.236822 0.000000 0.000000 0.000000 0.000000 0.000000 0.000000 
-6.108862 83.168816 41.299351 5.761925 4.900687 -44.644329 -2.615496 -8.519240 -2.153264 1.464043 4.146530 -0.704546 -2.875355 6.333329 0.482207 8.937108 10.844516 -2.027948 6.310568 5.288776 -6.802680 -61.647617 27.847715 -25.123177 -8.517753 -7.836515 -3.658122 4.491700 -8.031454 1.929840 -9.970903 10.524180 -9.335833 42.915714 51.445457 52.365925 13.450801 -11.076235 4.309192 -3.430928 -11.937640 12.331450 -0.361682 -0.870914 -4.695846 3.706360 -1.851733 1.666210 0.323366 -3.864151 -7.604660 0.000000 0.000000 0.000000 -14.309977 -20.766808 0.820347 4.042587 20.765078 -20.496141 0.000000 0.000000 0.000000 0.000000 0.000000 0.000000 
-6.292645 83.136574 41.640877 5.765531 4.855956 -45.182117 -2.595729 -8.507676 -2.310783 1.531886 4.157937 -0.760367 -3.180595 6.368333 0.723531 9.413363 10.791247 -1.937829 6.257207 4.952188 -7.035829 -61.042782 27.871265 -25.304802 -8.476331 -8.027782 -3.814919 4.517790 -8.235877 1.840268 -9.909756 10.687415 -9.466464 42.630207 51.253006 52.660202 13.850973 -10.973062 4.056563 -4.543533 -11.951504 12.690405 -0.486070 -0.527583 -4.353388 3.794886 -2.059385 1.715418 0.323366 -3.864151 -7.604660 0.000000 0.000000 0.000000 -14.205343 -21.178768 0.010662 3.767936 20.810827 -19.752066 0.000000 0.000000 0.000000 0.000000 0.000000 0.000000 
-6.490965 83.101730 41.978859 5.769031 4.810892 -45.695309 -2.574262 -8.504099 -2.465626 1.593228 4.169900 -0.814980 -3.085365 6.364031 0.820593 9.199343 10.875565 -1.778542 6.213297 4.628067 -7.273790 -60.463371 27.880444 -25.478336 -8.423944 -8.217031 -3.968138 4.538616 -8.437682 1.750027 -9.839993 10.860153 -9.592034 42.380642 51.052517 52.908150 14.238780 -10.861152 3.807136 -5.644511 -11.960735 13.050715 -0.608951 -0.186280 -4.025071 3.882009 -2.269032 1.764355 0.323366 -3.864151 -7.604660 0.000000 0.000000 0.000000 -14.103148 -21.543262 -0.579689 3.594332 20.775951 -19.237762 0.000000 0.000000 0.000000 0.000000 0.000000 0.000000 
-6.704065 83.064423 42.313164 5.772387 4.765639 -46.183380 -2.549269 -8.506787 -2.618243 1.650729 4.181864 -0.868853 -2.735518 6.278603 0.864465 8.550323 11.061481 -1.533622 6.170262 4.315084 -7.512159 -59.902718 27.881094 -25.644766 -8.362706 -8.405351 -4.119088 4.553183 -8.638055 1.659450 -9.770511 11.040709 -9.715598 42.175568 50.845997 53.110668 14.612073 -10.738475 3.558189 -6.733507 -11.962868 13.410805 -0.729483 0.152985 -3.711546 3.967306 -2.480948 1.812844 0.323366 -3.864151 -7.604660 0.000000 0.000000 0.000000 -14.002943 -21.894354 -1.324980 3.379791 20.762220 -18.583960 0.000000 0.000000 0.000000 0.000000 0.000000 0.000000 
-6.932178 83.024803 42.643608 5.775515 4.720438 -46.645916 -2.519040 -8.506119 -2.770112 1.709331 4.196386 -0.922704 -3.353446 6.323998 1.144578 9.507550 10.978378 -1.570422 6.117522 3.999925 -7.726549 -59.351627 27.893328 -25.814114 -8.294301 -8.593042 -4.268092 4.561198 -8.837337 1.568716 -9.708549 11.211318 -9.857916 42.003963 50.650497 53.286098 14.969430 -10.604197 3.308120 -7.809697 -11.956615 13.769147 -0.846830 0.489985 -3.413044 4.050528 -2.694913 1.860758 0.323366 -3.864151 -7.604660 0.000000 0.000000 0.000000 -13.904971 -22.192358 -1.783848 3.290923 20.658155 -18.230244 0.000000 0.000000 0.000000 0.000000 0.000000 0.000000 
